# xmcd CD database file
#
# Track frame offsets:
#	150
#	20656
#	38548
#
# Disc length: 652 seconds
#
# Revision: 1
# Processed by: cddbd v1.5.1PL2 Copyright (c) Steve Scherf et al.
# Submitted via: CDex 1.51
#
DISCID=19028a03
DTITLE=怒髪天 - 俺たちは明日を撃つ！
DYEAR=2005
DGENRE=Blues
TTITLE0=俺たちは明日を撃つ！
TTITLE1=望郷ドラ息子
TTITLE2=アストロ球団応援歌〜絶叫ver.〜
EXTD=YEAR: 2005
EXTT0=
EXTT1=
EXTT2=
PLAYORDER=
